<?xml version="1.0" encoding="UTF-8"?>
<!DOCTYPE svg PUBLIC "-//W3C//DTD SVG 1.1//EN" "http://www.w3.org/Graphics/SVG/1.1/DTD/svg11.dtd">
<!-- Creator: CorelDRAW 2020 (64-Bit) -->
<svg xmlns="http://www.w3.org/2000/svg" xml:space="preserve" width="153.633mm" height="34.3757mm" version="1.1" style="shape-rendering:geometricPrecision; text-rendering:geometricPrecision; image-rendering:optimizeQuality; fill-rule:evenodd; clip-rule:evenodd"
viewBox="0 0 15348.93 3434.36"
 xmlns:xlink="http://www.w3.org/1999/xlink"
 xmlns:xodm="http://www.corel.com/coreldraw/odm/2003">
 <defs>
  <style type="text/css">
   <![CDATA[
    .fil0 {fill:#0099FF}
    .fil1 {fill:#193477;fill-rule:nonzero}
   ]]>
  </style>
 </defs>
 <g id="Capa_x0020_1">
  <metadata id="CorelCorpID_0Corel-Layer"/>
  <path class="fil0" d="M1717.18 0c948.37,0 1717.19,768.81 1717.19,1717.19 0,948.37 -768.81,1717.18 -1717.19,1717.18 -948.36,0 -1717.18,-768.8 -1717.18,-1717.18 0,-948.37 768.81,-1717.19 1717.18,-1717.19zm390.37 500.98c16.27,17.83 48.63,107.65 60.33,138.77 33.57,89.28 14.19,73.27 59.78,88.51 12.2,4.07 24.06,8.59 35.96,13.48 65.79,26.99 163.99,83.69 212.94,133.04 4.48,4.52 8.9,7.34 13.74,11.88 34.88,32.73 73.86,76.3 104.02,117.51 101.82,139.07 136.11,249.6 184.25,408.94 66.12,218.91 84.11,464.83 -3.23,675.78 -9.25,22.37 -22.05,47.07 -33.67,65.19 -26.04,40.64 -19.89,16.74 -7.09,68.27 13.33,53.7 22.7,108.69 33.88,163.82 1.97,9.71 4.13,13.53 -1.28,20.14 -16.72,20.47 -74.04,63.24 -95.16,76.89 -15.09,9.75 -107.01,69.17 -123.42,74.61l-61.61 -181.59c-16.55,11.41 -43.1,25.87 -63.25,36.03 -22.09,11.13 -44.2,23.24 -65.8,34.79 -43.51,23.26 -89.06,45.48 -132.66,67.69 7.28,38.75 55.21,147.06 70.82,194.92 -6.35,6.81 -186.64,94.55 -220.05,111.62 -18.78,9.58 -56.66,31.01 -74.18,36.59 -7.51,-8.15 -75.45,-172.24 -81.47,-193.17l-271.35 116.68c-15.49,-16.59 -52.32,-110.39 -63.17,-138.03 -8.84,-22.53 -50.69,-128.65 -54.3,-145.03 7.46,-5.59 125.72,-57.39 145.04,-66.22 13.1,-5.97 37.27,-15.48 47.1,-22.74 75.02,-55.44 44.82,-136.48 20.7,-204.11 -99.7,-279.55 -190.67,-549.43 -290.64,-829.19 -20.97,-58.68 -39.91,-144.85 -124.14,-155.5 -37.46,-4.75 -79.34,15.51 -111.1,27.4 -14.38,5.38 -94.14,35.52 -102.48,36.48 -20.33,-76.99 -56.67,-183.9 -51.61,-269.17l55.26 -31.49c19.41,-10.89 37.51,-19.11 58.04,-28.83 34.48,-16.31 87.11,-36.78 125.49,-46.07 -2.21,-13.48 -8.46,-31.02 -12.3,-44.91 -8.25,-29.88 -29.08,-112.1 -28.91,-136.56 31.74,-22.63 249.91,-103.49 288.39,-111.53 4.86,22.08 63.78,193.57 66.4,197.78l284.28 -78.04 -73.28 -189.68 279.74 -44.91zm610.18 2399.54c-3.31,0.88 -2.64,0.31 -5.12,1.7 3.65,4.98 1.1,2.09 6.82,5.12 -0.45,-5.28 0.02,-3.22 -1.71,-6.81 37.92,-20.07 67.53,-51.34 97.58,-81.39 24.89,-24.88 47.98,-51.22 69.48,-78.82l66.46 -85.23c8.57,-11.44 16.2,-22.82 25.07,-34.59 37,-49.11 78.05,-109.65 105.04,-164.26 10.93,-22.12 43.18,-78.48 48.85,-102.84 -34.3,-16.45 -175.42,-13.82 -233.5,-13.64 -3.8,0.02 -12.32,0.52 -15.51,0.16 -9.78,-1.09 -7.64,-11.04 -12.2,-33.82l-22.23 -100.65c-1.55,-8.13 14.17,-33.66 19.25,-41.25 28.41,0 56.84,-0.07 85.26,0.04 13.59,0.06 25.13,-1.74 40.86,-1.74 7.4,0 14.83,-0.07 22.22,-0.06l100.38 7c25.24,1.95 53.32,6.29 78.53,8.39 2.05,-7.66 7.64,-15.65 10.73,-23.37 25.97,-65.14 45.14,-193.13 55.04,-265.39l4.09 -48.75c0.2,-8.46 1.55,-8.49 1.79,-16.95 3.56,-124.34 2.05,-215.09 -15.1,-337.82 -9.05,-64.84 -30.45,-172.1 -53.85,-232.49 -3.52,-9.07 -6.52,-17.29 -9.71,-26.09 -2.84,-7.84 -6.45,-18.31 -10.02,-25.77 -32.18,15.44 -118.63,49.47 -152.69,63.78l-152.42 64.05c-6.28,-26.99 -36.62,-115.38 -48.19,-144.41 -3.15,-7.9 -6.11,-12.62 -8.04,-20.92 15.62,-3.65 87.03,-36.68 109.31,-45.81l183.85 -76.92c-7.12,-30.58 -55.73,-110.49 -73.19,-139.86 -15.84,-26.65 -33.86,-52.43 -51.95,-77.59 -48.06,-66.85 -100.01,-129.58 -157.36,-186.94 -7.51,-7.51 -13.83,-13.76 -21.3,-21.3 -16.62,-16.78 -40.9,-35.52 -56.26,-51.12 -4.87,-4.95 -7.11,-5.99 -11.91,-10.25 -30.93,-27.49 -61.6,-52.78 -94.54,-77.61 -24.35,-18.35 -51.86,-33.7 -77.2,-50.64 -8.91,-5.95 -17.72,-11.21 -26.92,-17.38 -8.82,-5.92 -17.31,-11.02 -25.9,-16.72l-81.82 -47.71c-11,7.37 -50.28,59.21 -65.22,74.55l-89.49 99.72c-6.56,7.08 -14.68,20.89 -24.27,23.45 -5.71,-24.56 -26.21,-63.56 -37.47,-85.24 -10.34,-19.89 -24.22,-36.93 -36.84,-55.2 -4.3,-6.22 -10.69,-12.57 -12.62,-19.77 7.87,-11.75 24.74,-25.36 34.1,-37.49l34.34 -40.65c8.32,-10.4 14.28,-16.73 25.32,-24.13 -10.08,-13.76 -77.17,-42.04 -101.76,-51.64 -65.88,-25.7 -135.25,-40.92 -206.23,-51.13 -66.53,-9.56 -217.37,-19.76 -290.75,-10.19 -7.93,1.04 -16.48,1.54 -23.43,2.14 -23.32,2 -45.45,7.08 -66.43,11.98 4.82,6.57 35.52,21.68 44.88,26.71l23.3 12.49c24.12,11.87 47.36,26.76 70.43,40.36 38.93,22.98 131.22,93.73 167.79,123.66 7.07,5.78 12.64,10.18 19.67,16.12 6.94,5.87 15.2,10.51 19.92,17.57 -16.26,0 -193.43,30.76 -217.44,34.81 -25.84,4.36 -19.82,3.5 -56.97,-22.89 -46.26,-32.85 -94.86,-61.26 -145.99,-85.8 -5.77,-2.78 -9.64,-3.91 -15.37,-6.79 -19.18,-9.67 -39.67,-17.07 -59.97,-25.26 -49.27,-19.84 -116.16,-40.9 -170.65,-40.69 -56.4,0.21 -43.01,-4.74 -16.34,62.36 4.23,10.62 7.83,18.39 12.18,28.72 4.56,10.88 8.19,20.01 12.6,30.01l25.13 60.09c4.3,10.86 8.46,19.43 12.68,29.93l25.05 60.18c3.96,9.84 9.79,20.12 12.19,30.41 -14.42,3.36 -29.53,10.72 -43.09,16.56 -14.41,6.22 -27.32,11.49 -41.57,18.08 -13.52,6.26 -26.99,13.22 -39.78,19.87 -13.15,6.85 -25.83,15.12 -39.18,22.18 -1.09,-13.12 -119.97,-278.65 -126.12,-305.1 -8.77,2.35 -26.57,19.78 -32.8,26.86 -3,3.4 -3,4.25 -6,7.62l-20.62 25.42c-12.53,16.59 -24.38,35.8 -33.75,54.87 -10.19,20.74 -20.58,39.89 -29.3,61.03 -18.28,44.29 -33.71,86.67 -47.01,133.67 -13.44,47.51 -24.9,96.47 -31.73,147.23 -2.33,17.24 -5.08,34.07 -6.88,52.77 -4.01,41.29 -17.76,160.67 -13.02,195.7 0.77,5.65 2.81,21.5 2.95,27.74 21.22,-1.77 70.26,-14.62 94.74,-19.46 10.59,-2.1 22.45,-6.1 33.09,-6.1 0,42.89 15.65,110.27 24.85,152.41 1.59,7.27 3.98,14.68 4.13,21.44l-114.35 23.7c-7.35,1.49 -32.57,6.4 -37.34,8.69 0,28.4 35.49,237.67 41.61,268.59 11.67,58.98 75.49,292.11 89.36,326.53 7.16,17.77 16.46,36.87 20.27,56.43 1.74,8.96 4.93,13.99 5.56,21.7 8.3,-0.18 9.62,-2.39 15.57,-4.88 5.32,-2.22 9.12,-3.51 14.54,-5.92 10.57,-4.73 19.35,-7.97 30.03,-12.58 19.85,-8.56 38.51,-16.84 58.7,-24.82 9.98,-3.95 19.01,-7.62 28.87,-12.04l265.25 -111.43c10.38,-4.49 19.66,-8.4 29.95,-12.65 6.54,-2.71 23.53,-11.08 30.93,-11.7 0.51,6.18 4.08,15.31 6.31,20.96l28.42 80.65c2.47,7.48 4.08,13.13 6.88,20.39 2.84,7.32 4.6,12.37 7.15,20.11 2.72,8.25 5.64,13.68 7.47,21.51 -18.71,9.9 -387.09,163.29 -412.74,173.59 -70.44,28.32 -41.73,22.58 -7.78,102.06 21.99,51.5 49.19,101 77.84,148.85 11.44,19.12 22.62,36.92 34.52,55.82 23.54,37.42 47.97,72.32 72.94,107.73 40.5,57.42 85.19,111.12 128.56,166.3l117.3 131.54 67.34 67.32c8.22,8.27 15.5,13.77 23.87,22.16 8.07,8.08 14.95,13.34 22.99,21.32l9.97 8.77c0.28,0.23 0.66,0.56 0.93,0.79 66.04,57.13 147.87,124.63 225.62,162.99l62.33 29.7c22.02,9.25 40.03,19.99 62.71,27.62 46.92,15.8 89.99,32.34 140.11,40.57 19.8,3.25 42.38,5.42 63.82,4.4 7.99,-0.39 13.11,-2.82 20.43,-3.43 -2.37,-10.14 -8.22,-20.85 -12.16,-30.46l-38.49 -91.03c-5.89,-14.93 -48.88,-109.85 -49.91,-122.24l160.22 -80.12c10.11,19.11 17.8,42.07 26.3,62.33 9.15,21.84 18.09,41.88 26.79,63.54l39.17 93.78c3.62,8.84 11.23,23.24 13.41,32.61 11.78,-0.99 25.1,-18.23 31.98,-25.99 5.5,-6.19 8,-8.54 13.31,-15.66 37.18,-49.75 75.92,-111.47 95.54,-170.36 15,-45.02 28.45,-91.11 39.48,-137.77l15.41 -73.22c1.46,-6.27 0.49,-5.25 5.34,-8.31l101.67 -60.25 89.31 -60.68c-2.96,12.67 -3.91,34.26 -5.07,47.78 -3.46,40.07 -12.89,100.89 -20.36,138.15 -4.46,22.24 -40.76,159.08 -41.05,172.01zm-2408.36 -1803.3l172.15 5.12c14.47,0 29.78,-0.62 43.38,1.04 15.57,1.9 83.8,-3.07 104.44,-6.61 6.7,-1.15 12.81,-3.17 19.21,-4.66 -6.79,-29.12 -3.36,-108.6 -0.25,-136.6 1.72,-15.54 1.46,-43.29 4.64,-65.25l6.14 -63.74c8.14,-74.48 30.68,-192.33 56.16,-262.56l8.3 -27.48c-18.51,4.31 -55.18,37.89 -70.38,50.62l-31.45 29.91c-25,24.99 -64.26,70.88 -84.44,97.93 -79.57,106.66 -140.51,197.66 -200.63,317.52 -5.49,10.96 -26.6,56.69 -27.26,64.77zm869.26 2070.89c22.99,15.4 26.48,17.1 56.47,27.05 83.26,27.63 224.45,55.33 313.09,65.3 11.51,1.29 25.94,1.95 38.78,3.82 25.03,3.66 54.2,2.39 77.9,5.63 7.04,0.97 41.24,1.98 70.76,2.17l18.65 0c11.78,-0.1 21.13,-0.39 25.03,-0.99 10.09,-1.52 20.45,-0.21 30.7,-1.69 10.7,-1.55 18.68,-1.56 28.98,-3.4 17.74,-3.16 15.61,-6.91 24.82,-0.75l3.51 -6.76c-10.57,0.83 -7.41,1.44 -16.39,-4.18l-47.35 -27.67c-11.03,-6 -20.51,-11.72 -31.26,-18.16 -34.76,-20.82 -56.2,-32.8 -90.89,-57.41l-126.36 -96.92c-4.64,-3.75 -9.24,-7.64 -13.83,-11.73 -14.45,-12.87 -24.78,-19.88 -39.16,-34.14 -5.07,-5.02 -8.51,-6.66 -13.7,-11.88 -8.64,-8.69 -16.04,-16.06 -24.69,-24.73l-39.11 -35.89c-6.07,-5.15 -7.33,-6.85 -14.15,-11.42l-120.61 116.31 -104.83 118.45c-4.41,4.86 -3.29,3.17 -6.36,8.97zm-1010.73 -1440.24c0,54.98 2.66,80.81 5.15,131.21 2.52,51.2 22.64,168.23 33.7,215.15 8.36,35.46 34.49,131.15 51.48,163.27 9.55,-2.22 130.12,-54.11 142.22,-58.91l52.67 -22.31c58.45,-26.13 133.4,-56.09 194.46,-81.67 12.73,-5.33 23.25,-10.02 36.03,-15.11l142.21 -58.91 -77.29 -231.2 -29.41 -113.76c-14.37,-63.41 -25.86,-127.28 -36.23,-190.46l-17.15 -95.34c-3.04,-14.85 -5.61,-53.46 -8.73,-76.49 -3.03,-22.43 0.52,-21.82 -40.88,-20.59l-75.41 4.71c-14.4,1.98 -36.99,0.15 -52.45,0.4 -5.67,0.1 -9.63,1.07 -12.23,1.22 -4.88,0.27 -5.86,-0.8 -11.52,-1.14 -8.79,-0.52 -18.48,0.31 -27.36,0.04 -8.97,-0.27 -12.95,-1.64 -23.85,-1.71 -17.19,-0.11 -58.19,-5 -76.7,-5.12 -20,-0.13 -80.24,-6.86 -100.52,-6.86l-13.99 52.48c-18.52,67.54 -23.11,92.58 -34.96,164.47 -3.15,19.09 -7.3,37.9 -8.96,57.51 -0.82,9.73 -2.64,20.07 -3.33,29.06 -4.24,55.4 -6.94,100.43 -6.94,160.09zm158.51 669.84c0.65,7.84 21.43,49.61 26.14,59.09l14.85 27.75c45.4,78.18 66.12,108.97 120.96,180.73 6.21,8.12 12.48,15.88 18.71,23.89l101.85 114.62c7.41,7.33 13.73,14.33 21.28,21.32l68.2 61.34c31.68,31.51 129.6,104.14 169.34,130.64 39.6,26.41 81.11,49.18 123.39,70.91l13.64 8.51c20.98,-14.05 24.81,-29.35 52.43,-56.66 4.35,-4.3 5.05,-5.5 8.68,-10.07 13.22,-16.56 74.17,-74.96 90.09,-93.99l63.06 -66.48c3.43,-4.09 3.75,-5.32 7.71,-9.32l64.38 -66.87 -55.72 -72.12c-27.05,-33.13 -56.61,-74.33 -82.08,-108.81 -32.16,-43.51 -60.95,-89.32 -90.27,-134.72l-77.6 -132.05c-2.48,-4.66 -4,-6.37 -6.27,-10.77 -14.58,-28.16 -29.04,-54.98 -43.73,-84.1l-20.77 -43.99c-3.85,-9.49 -18.31,-37.64 -18.99,-45.79 -9.73,0.81 -325.15,134.31 -355.11,147.7l-214.17 89.22zm1660.12 -886.31c6.15,-1.43 16.95,-6.26 23.28,-9.1 8.38,-3.76 15.6,-6.52 23.98,-10.12 8.69,-3.73 15.46,-6.43 24.11,-9.97 7.66,-3.14 15.55,-6.94 23.83,-10.26 7.52,-3.03 14.74,-6 22.89,-9.5 8.37,-3.59 15.59,-6.35 23.97,-10.11l214.92 -90.19c7.25,-2.88 17.48,-8.64 24.83,-9.26l15.58 38.96c9.85,24.63 38.8,102.01 44.08,124.66 -8.98,0.75 -212.12,88.58 -238.36,99.12 -15.6,6.26 -135.37,58.59 -145.14,59.39 -4.26,-18.28 -40.84,-113.65 -50.5,-142.09l-7.44 -21.54zm136.62 717.28l153.31 -72.77c40.62,-20.6 119,-54.12 152.16,-72.88 54.48,-30.81 87.7,-60.41 120.83,-104.14 101.83,-134.41 14.22,-422.45 -30.64,-549.76 -40.85,-115.94 -83.56,-212.05 -148.42,-298.16 -51.13,-67.9 -115.93,-113.71 -203.41,-132.38 -39.25,-8.37 -59.3,-9.11 -100.36,-3.6 -61.86,8.31 -124.55,23.99 -182.62,40.65 -39.69,11.4 -135.81,38.71 -170.28,52.69l409.44 1140.34z"/>
  <path class="fil1" d="M4809.11 2572.22c237.69,0 426.13,-70.66 561.04,-211.99 137.05,-141.34 205.57,-334.06 205.57,-576.03 0,-246.26 -66.38,-438.98 -201.28,-580.31 -134.91,-143.48 -319.07,-214.14 -552.47,-214.14l-610.29 0 0 1582.47 597.44 0zm-306.22 -1301.95l319.07 0c143.47,0 252.67,49.25 331.91,145.61 79.23,96.36 117.77,216.28 117.77,361.89 0,147.75 -40.68,271.96 -119.91,368.32 -79.24,96.36 -188.44,145.61 -331.92,145.61l-316.92 0 0 -1021.44z"/>
  <path id="1" class="fil1" d="M5961.15 1270.26c100.65,0 175.6,-72.8 175.6,-175.6 0,-100.64 -74.95,-175.59 -175.6,-175.59 -100.64,0 -179.87,74.95 -179.87,175.59 0,102.79 77.09,175.6 179.87,175.6zm137.05 139.19l-280.52 0 0 1162.76 280.52 0 0 -1162.76z"/>
  <path id="2" class="fil1" d="M6929.06 2597.91c237.7,0 443.27,-119.92 543.91,-306.21l-226.99 -132.77c-57.82,109.21 -184.16,182.02 -312.64,182.02 -98.51,0 -179.87,-34.27 -244.12,-100.65 -64.24,-66.39 -96.36,-149.9 -96.36,-250.55 0,-100.65 32.12,-184.16 98.51,-250.54 66.38,-66.39 149.89,-100.65 250.54,-100.65 128.48,0 239.84,70.66 308.36,184.16l226.98 -122.06c-94.21,-203.43 -301.93,-319.06 -539.62,-319.06 -184.16,0 -334.06,57.82 -449.69,171.31 -115.63,113.48 -173.46,259.1 -173.46,436.83 0,177.73 57.83,323.35 171.31,436.84 115.64,113.49 263.39,171.31 443.27,171.31z"/>
  <path id="3" class="fil1" d="M7944.07 2572.22l0 -629.56c0,-182.02 115.63,-308.36 280.52,-308.36 154.18,0 254.82,109.22 254.82,304.08l0 633.85 278.38 0 0 -708.8c0,-156.31 -44.97,-274.09 -132.77,-357.61 -87.8,-83.51 -192.72,-126.34 -319.06,-126.34 -164.89,0 -301.94,74.95 -368.32,179.88l0 -614.58 -271.96 0 0 1627.44 278.38 0z"/>
  <path id="4" class="fil1" d="M9175.35 1270.26c100.65,0 175.6,-72.8 175.6,-175.6 0,-100.64 -74.95,-175.59 -175.6,-175.59 -100.64,0 -179.87,74.95 -179.87,175.59 0,102.79 77.09,175.6 179.87,175.6zm137.05 139.19l-280.52 0 0 1162.76 280.52 0 0 -1162.76z"/>
  <polygon id="5" class="fil1" points="11016.94,2572.22 10440.91,1689.97 10989.1,989.75 10505.15,989.75 10006.21,1640.72 10006.21,989.75 9605.78,989.75 9605.78,2572.22 10006.21,2572.22 10006.21,2210.33 10177.52,2002.61 10528.71,2572.22 "/>
  <path id="6" class="fil1" d="M12509.48 2572.22l-563.18 -1582.47 -372.59 0 -578.17 1582.47 413.28 0 94.22 -289.08 503.22 0 92.07 289.08 411.15 0zm-905.8 -635.99l156.32 -468.96 149.9 468.96 -306.22 0z"/>
  <path id="7" class="fil1" d="M13136.9 2600.05c190.58,0 342.62,-47.11 456.11,-141.33 113.48,-96.36 171.31,-216.28 171.31,-364.03 0,-190.58 -100.65,-329.77 -301.94,-415.43 -40.68,-17.12 -102.78,-40.68 -182.02,-68.52l-139.19 -51.39c-83.51,-32.12 -126.33,-70.67 -126.33,-117.78 0,-57.82 59.95,-102.78 169.16,-102.78 119.92,0 276.24,53.53 370.46,130.62l186.3 -304.07c-160.6,-132.77 -346.91,-199.15 -563.18,-199.15 -173.45,0 -314.78,47.12 -423.99,139.19 -109.21,92.08 -164.88,209.85 -164.88,349.04 0,182.02 87.79,319.06 261.25,411.15 44.97,23.55 113.49,49.25 201.28,81.37l141.34 47.11c85.65,32.12 128.48,72.8 128.48,122.06 0,74.95 -81.37,115.63 -177.73,115.63 -167.02,0 -316.92,-66.38 -449.69,-199.14l-201.29 293.37c164.89,182.02 381.16,274.09 644.56,274.09z"/>
  <polygon id="8" class="fil1" points="14391.75,2572.22 14391.75,1976.91 14946.36,1976.91 14946.36,2572.22 15348.93,2572.22 15348.93,989.75 14946.36,989.75 14946.36,1593.61 14391.75,1593.61 14391.75,989.75 13991.31,989.75 13991.31,2572.22 "/>
 </g>
</svg>
