<svg width="393" height="209" viewBox="0 0 393 209" fill="none" xmlns="http://www.w3.org/2000/svg">
<g clipPath="url(#clip0_4480_693)">
<path d="M88.8767 0C39.7908 0 -0.00012207 46.7841 -0.00012207 104.5C-0.00012207 162.216 39.7908 209 88.8767 209C137.963 209 177.753 162.216 177.753 104.5C177.753 46.7841 137.963 0 88.8767 0Z" fill="#252D1C"/>
<path d="M125.526 172.845C125.934 171.46 126.126 170.884 126.184 170.671C126.679 170.579 127.168 170.453 127.646 170.295C130.91 169.178 133.874 167.326 136.308 164.88C136.872 164.222 137.399 163.589 137.897 162.956C140.574 159.564 142.392 156.278 144.974 150.095C146.453 146.548 149.799 132.473 150.939 122.861C151.307 119.735 152.794 106.711 150.641 98.4476C149.632 94.5653 148.541 93.8379 148.753 91.5003C148.966 89.1627 149.386 72.0192 149.386 66.5717C150.146 49.4853 143.372 32.1211 130.282 20.4333C130.09 20.2576 129.898 20.0859 129.697 19.9143C129.497 19.7426 129.309 19.5792 129.109 19.4157C128.909 19.2522 128.835 19.1787 128.7 19.0642C115.973 8.55335 97.751 3.22435 75.018 7.99348H74.9976C70.0756 9.05349 65.3049 10.7228 60.7956 12.9629C52.4771 17.0495 46.2382 23.8702 45.1228 33.294C43.5866 46.2855 47.6437 59.2198 47.1044 72.199C46.7898 79.9391 42.2015 83.6417 37.9891 89.5469C37.9605 89.5877 37.936 89.6286 37.9074 89.6654C33.7645 94.7451 28.0567 101.652 26.7084 105.276C17.0293 125.166 33.9973 134.643 34.0627 134.668L33.5479 146.776L33.9565 152.216C35.6398 165.947 42.1034 179.114 52.6977 188.563C52.8775 188.726 53.0573 188.89 53.2411 189.049C53.425 189.208 53.6742 189.417 53.8948 189.601C54.0133 189.703 54.1318 189.805 54.2544 189.903C63.913 197.884 76.7259 202.882 92.2966 202.743H92.6316C92.8645 202.743 93.1015 202.743 93.3344 202.743H93.604H93.6694C94.8256 202.702 95.9737 202.6 97.1545 202.478C98.2267 202.322 99.2892 202.106 100.337 201.832C102.26 201.347 104.143 200.719 105.972 199.952C107.779 199.195 109.515 198.279 111.16 197.214C112.663 196.249 114.062 195.131 115.336 193.879C116.212 193.017 117.017 192.085 117.742 191.092C118.11 190.59 118.474 190.034 118.829 189.458C119.775 187.849 120.618 186.183 121.354 184.468C122.171 182.621 122.919 180.671 123.593 178.775C124.312 176.768 124.946 174.827 125.464 173.135C125.489 173.062 125.505 172.996 125.53 172.927" fill="white"/>
<path d="M303.124 0H302.618H129.84C140.937 5.82349 150.91 13.8946 159.503 23.9887C168.597 34.7547 175.67 47.0766 180.381 60.36C185.445 74.5217 188.012 89.4555 187.968 104.496C188.012 119.536 185.445 134.47 180.381 148.632C175.674 161.916 168.605 174.239 159.515 185.007C150.935 195.113 140.949 203.172 129.853 208.996H302.63H303.136C352.21 209 391.993 162.216 391.993 104.5C391.993 46.7841 352.21 0 303.124 0Z" fill="#FFDF4C"/>
<path d="M203.825 69.1954C205.924 70.4431 208.329 71.0827 210.77 71.0425C216.607 71.0425 220.734 68.4298 223.15 63.2043L218.856 61.161C217.325 64.6074 214.705 66.3292 210.995 66.3265C209.895 66.3642 208.801 66.1486 207.797 65.6966C206.793 65.2446 205.907 64.5681 205.206 63.7192C203.743 61.9838 203.01 59.7415 203.007 56.9926C202.992 55.4491 203.326 53.9221 203.984 52.5259C204.587 51.2113 205.54 50.0875 206.738 49.277C207.93 48.4789 209.336 48.0614 210.77 48.0796C212.435 48.0543 214.06 48.5865 215.387 49.5916C216.719 50.597 217.485 52.0573 217.683 53.9725H222.276V44.0174H217.683V45.9137C215.63 44.1819 213.015 43.2592 210.329 43.3186C208.022 43.2898 205.751 43.8978 203.767 45.0759C201.801 46.2518 200.199 47.9492 199.138 49.9799C198.001 52.1315 197.42 54.5342 197.451 56.9681C197.421 59.4468 197.99 61.896 199.11 64.1075C200.172 66.2132 201.806 67.9767 203.825 69.1954V69.1954Z" fill="#252D1C"/>
<path d="M229.753 61.2305C229.753 64.6278 230.34 67.058 231.513 68.5211C232.687 69.9841 234.504 70.7156 236.964 70.7156C239.688 70.7156 242.567 69.5591 245.601 67.246V70.2661H255.256V65.6768H250.761V44.0175H240.956V48.6354H245.597V62.8365C242.9 65.0842 240.396 66.208 238.083 66.208C236.953 66.208 236.143 65.892 235.652 65.2599C235.162 64.6279 234.916 63.6375 234.913 62.2889V44.0175H226.079V48.6354H229.757L229.753 61.2305Z" fill="#252D1C"/>
<path d="M278.941 32.0271H271.48L267.635 40.6132H271.153L278.941 32.0271Z" fill="#252D1C"/>
<path d="M268.436 53.9684C266.855 53.9785 265.296 54.3357 263.868 55.0146C262.417 55.662 261.169 56.6935 260.261 57.9979C259.368 59.2931 258.901 60.8344 258.925 62.4074C258.914 63.8911 259.34 65.3452 260.15 66.588C260.955 67.8447 262.062 68.879 263.37 69.5958C264.72 70.347 266.242 70.7329 267.787 70.7155C270.848 70.7155 273.626 69.4895 276.122 67.0376V70.2578H285.053V65.6767H280.661V53.2941C280.661 49.8477 279.844 47.3262 278.209 45.7297C276.575 44.1332 274.009 43.3349 270.512 43.3349C268.164 43.2733 265.838 43.8001 263.746 44.8674C261.817 45.9381 260.252 47.5604 259.252 49.5262L264.191 50.7522C264.742 49.7831 265.549 48.9843 266.524 48.4432C267.611 47.9029 268.816 47.6417 270.03 47.6831C272.013 47.6831 273.436 48.1231 274.299 49.0031C275.163 49.8831 275.596 51.3475 275.599 53.3963V56.2202C273.497 54.7548 270.998 53.9689 268.436 53.9684V53.9684ZM275.599 63.5762C273.384 65.693 271.013 66.7501 268.485 66.7474C267.252 66.7977 266.048 66.3568 265.139 65.5214C264.716 65.1241 264.381 64.6415 264.158 64.1054C263.935 63.5693 263.828 62.992 263.844 62.4115C263.832 61.7957 263.959 61.1851 264.215 60.6253C264.472 60.0656 264.852 59.5711 265.327 59.1789C266.304 58.3284 267.562 57.8711 268.857 57.8957C271.104 57.8957 273.351 58.7689 275.599 60.5152V63.5762Z" fill="#252D1C"/>
<path d="M317.346 70.2661V65.6768H312.954V52.6199C312.954 49.5576 312.393 47.3032 311.271 45.8565C310.149 44.4098 308.415 43.6851 306.07 43.6824C303.237 43.6824 300.216 44.8566 297.008 47.2051V44.0175H287.3V48.6354H291.917V65.6768H287.3V70.2702H301.527V65.6768H297.008V51.7208C299.87 49.4568 302.45 48.3248 304.746 48.3248C305.825 48.3248 306.605 48.6845 307.079 49.3996C307.553 50.1148 307.79 51.2958 307.79 52.9427V70.2661H317.346Z" fill="#252D1C"/>
<path d="M323.438 63.4782C323.438 66.1222 323.912 67.9939 324.86 69.081C325.808 70.168 327.365 70.7156 329.526 70.7156C330.841 70.6584 332.143 70.4234 333.395 70.0168V65.3499C332.513 65.6596 331.585 65.8198 330.65 65.8239C330.355 65.8536 330.057 65.8111 329.782 65.7C329.508 65.5889 329.264 65.4127 329.072 65.1864C328.767 64.7641 328.614 63.8364 328.611 62.4034V48.6518H333.403V44.0175H328.611V35.3456L323.446 40.0657V44.0175H320.027V48.6354H323.446L323.438 63.4782Z" fill="#252D1C"/>
<path d="M362.694 50.2741C361.518 48.1847 359.813 46.4413 357.75 45.2189C355.628 43.955 353.197 43.303 350.727 43.3349C348.232 43.2916 345.771 43.9062 343.589 45.1167C341.529 46.2736 339.831 47.9816 338.686 50.0493C337.49 52.236 336.883 54.6964 336.925 57.1887C336.9 59.631 337.506 62.0384 338.686 64.1769C339.84 66.2684 341.544 68.004 343.614 69.1953C345.776 70.4386 348.233 71.0766 350.727 71.0425C353.166 71.0656 355.567 70.4273 357.673 69.1953C359.741 67.9888 361.455 66.2577 362.641 64.1769C363.857 62.0505 364.485 59.6383 364.459 57.1887C364.488 54.7688 363.879 52.384 362.694 50.2741ZM357.95 61.59C357.259 62.9127 356.225 64.025 354.956 64.8103C353.691 65.6107 352.223 66.0319 350.727 66.024C349.229 66.033 347.758 65.6179 346.486 64.8267C345.197 64.0387 344.144 62.9178 343.438 61.5818C342.711 60.2323 342.334 58.7217 342.343 57.1887C342.334 55.6557 342.711 54.1451 343.438 52.7955C344.138 51.4583 345.18 50.3304 346.457 49.5262C347.717 48.7194 349.182 48.2937 350.678 48.3002C352.189 48.2819 353.672 48.7082 354.943 49.5262C356.211 50.3348 357.243 51.4622 357.938 52.7955C358.653 54.1401 359.022 55.6414 359.013 57.1642C359.031 58.7048 358.666 60.2258 357.95 61.59Z" fill="#252D1C"/>
<path d="M204.421 122.236C206.746 123.447 209.338 124.056 211.959 124.006C214.582 124.03 217.176 123.446 219.534 122.297C221.843 121.169 223.792 119.418 225.16 117.242L220.621 115.199C219.699 116.613 218.413 117.752 216.899 118.497C215.397 119.216 213.751 119.583 212.086 119.568C209.883 119.627 207.74 118.845 206.092 117.381C204.458 115.926 203.484 113.942 203.171 111.427H225.156C225.131 108.633 224.474 105.881 223.236 103.376C222.148 101.205 220.464 99.3874 218.382 98.1371C216.188 96.875 213.689 96.2389 211.159 96.2981C208.727 96.2716 206.331 96.8876 204.213 98.084C202.137 99.2504 200.423 100.965 199.257 103.041C198.036 105.211 197.411 107.666 197.447 110.156C197.41 112.656 198.044 115.119 199.281 117.291C200.491 119.394 202.274 121.108 204.421 122.236V122.236ZM206.145 102.555C207.539 101.274 209.368 100.572 211.261 100.593C213.243 100.568 215.167 101.266 216.674 102.555C218.254 103.884 219.337 105.709 219.747 107.733H203.326C203.655 105.738 204.649 103.913 206.145 102.555V102.555Z" fill="#252D1C"/>
<path d="M229.352 114.247V123.237H233.945V121.815C234.869 122.403 235.873 122.853 236.927 123.152C238.105 123.506 239.329 123.687 240.559 123.687C243.651 123.687 246.134 122.955 248.008 121.492C248.907 120.818 249.631 119.937 250.12 118.925C250.608 117.912 250.846 116.797 250.814 115.673C250.814 111.548 248.227 109.01 243.052 108.06L239.583 107.385C237.287 107.02 235.809 106.596 235.15 106.114C234.833 105.889 234.578 105.588 234.406 105.239C234.234 104.89 234.151 104.504 234.165 104.116C234.165 103.65 234.284 103.192 234.511 102.785C234.739 102.379 235.067 102.038 235.464 101.795C236.46 101.159 237.627 100.845 238.807 100.896C240.018 100.865 241.217 101.144 242.29 101.708C243.363 102.272 244.273 103.101 244.935 104.116V105.726H249.429V97.001H244.935V98.1207C243.219 97.14 241.105 96.6495 238.594 96.6495C237.096 96.6494 235.613 96.9467 234.231 97.5241C232.859 98.0707 231.657 98.9702 230.745 100.131C229.826 101.328 229.347 102.804 229.389 104.312C229.355 105.221 229.501 106.128 229.818 106.981C230.134 107.833 230.616 108.615 231.236 109.281C232.464 110.576 234.402 111.491 237.05 112.028L239.718 112.6C242.03 113.049 243.569 113.487 244.335 113.912C244.69 114.085 244.988 114.357 245.191 114.696C245.395 115.034 245.496 115.425 245.483 115.82C245.506 116.349 245.383 116.875 245.128 117.339C244.873 117.803 244.495 118.188 244.036 118.452C243.072 119.046 241.75 119.341 240.069 119.339C238.64 119.37 237.235 118.97 236.036 118.19C235.494 117.856 235.027 117.412 234.664 116.888C234.301 116.365 234.051 115.771 233.928 115.146V114.247H229.352Z" fill="#252D1C"/>
<path d="M254.459 101.639H257.879V116.466C257.879 119.111 258.353 120.979 259.301 122.069C260.248 123.158 261.804 123.703 263.966 123.703C265.282 123.646 266.583 123.411 267.836 123.004V118.317C266.954 118.631 266.026 118.795 265.09 118.803C264.794 118.834 264.495 118.792 264.218 118.681C263.942 118.57 263.697 118.393 263.505 118.166C263.2 117.741 263.046 116.813 263.043 115.383V101.639H267.836V97.0214H263.043V88.3127L257.879 93.0287V97.001H254.459V101.639Z" fill="#252D1C"/>
<path d="M280.689 93.5805H284.207L291.995 84.9944H284.53L280.689 93.5805Z" fill="#252D1C"/>
<path d="M289.171 120.029V123.25H298.107V118.64H293.715V106.261C293.715 102.818 292.898 100.296 291.263 98.697C289.629 97.0977 287.063 96.2981 283.566 96.2981C281.219 96.2377 278.894 96.766 276.804 97.8347C274.867 98.9003 273.293 100.521 272.285 102.489L277.229 103.715C277.779 102.745 278.586 101.946 279.562 101.406C280.648 100.863 281.853 100.6 283.067 100.642C285.047 100.642 286.469 101.084 287.333 101.966C288.196 102.849 288.629 104.313 288.632 106.359V109.179C286.532 107.727 284.039 106.95 281.486 106.952C279.905 106.963 278.346 107.32 276.918 107.998C275.468 108.646 274.222 109.677 273.315 110.981C272.423 112.276 271.956 113.815 271.979 115.387C271.969 116.87 272.396 118.324 273.204 119.568C274.01 120.823 275.116 121.857 276.424 122.575C277.778 123.328 279.304 123.715 280.853 123.699C283.901 123.688 286.674 122.465 289.171 120.029ZM276.894 115.387C276.882 114.771 277.01 114.16 277.267 113.6C277.525 113.04 277.905 112.546 278.381 112.154C279.357 111.302 280.616 110.845 281.911 110.871C284.158 110.871 286.404 111.744 288.648 113.491V116.56C286.434 118.671 284.063 119.728 281.535 119.731C280.925 119.756 280.316 119.661 279.742 119.451C279.169 119.24 278.642 118.919 278.193 118.505C277.766 118.105 277.43 117.618 277.206 117.078C276.982 116.537 276.875 115.955 276.894 115.371V115.387Z" fill="#252D1C"/>
<path d="M340.656 103.376C339.568 101.204 337.884 99.3873 335.802 98.137C333.608 96.8744 331.109 96.2383 328.578 96.298C326.146 96.2715 323.75 96.8876 321.632 98.0839C319.559 99.2527 317.845 100.967 316.676 103.041C315.457 105.211 314.834 107.666 314.871 110.156C314.832 112.656 315.465 115.12 316.705 117.291C317.911 119.393 319.689 121.108 321.833 122.236C324.156 123.447 326.747 124.056 329.367 124.006C331.99 124.03 334.583 123.446 336.942 122.297C339.251 121.168 341.201 119.417 342.572 117.242L338.029 115.199C337.109 116.613 335.824 117.752 334.31 118.497C332.807 119.216 331.16 119.582 329.493 119.567C327.292 119.626 325.151 118.846 323.504 117.385C321.869 115.93 320.896 113.946 320.582 111.431H342.572C342.546 108.636 341.891 105.883 340.656 103.376V103.376ZM320.742 107.733C321.073 105.739 322.066 103.915 323.561 102.555C324.955 101.275 326.784 100.573 328.676 100.593C330.66 100.57 332.585 101.267 334.094 102.555C335.673 103.884 336.754 105.709 337.162 107.733H320.742Z" fill="#252D1C"/>
<path d="M355.307 85.6155H345.497V90.1598H350.138V118.64H345.497V123.233H359.299V118.64H355.307V85.6155Z" fill="#252D1C"/>
<path d="M224.813 138.583H214.631V143.127H219.698V153.511C218.436 152.168 216.932 151.076 215.265 150.291C213.747 149.608 212.1 149.259 210.435 149.265C208.121 149.257 205.853 149.911 203.898 151.149C201.899 152.392 200.267 154.146 199.171 156.229C198.026 158.38 197.437 160.784 197.459 163.221C197.433 165.582 197.985 167.912 199.069 170.009C200.1 172.012 201.664 173.692 203.588 174.864C205.609 176.077 207.931 176.696 210.288 176.65C213.933 176.65 217.065 175.218 219.685 172.355V176.2H229.54V171.607H224.801L224.813 138.583ZM218.599 167.39C217.903 168.763 216.862 169.932 215.579 170.782C214.3 171.631 212.796 172.075 211.261 172.057C209.764 172.075 208.294 171.668 207.02 170.884C205.751 170.098 204.717 168.986 204.025 167.663C203.279 166.249 202.901 164.669 202.926 163.07C202.917 161.52 203.286 159.991 204 158.616C204.677 157.269 205.685 156.118 206.93 155.269C208.18 154.428 209.656 153.988 211.163 154.01C212.706 153.983 214.227 154.386 215.555 155.175C216.84 155.944 217.892 157.049 218.599 158.37C219.337 159.742 219.715 161.279 219.698 162.837C219.706 164.421 219.329 165.984 218.599 167.39Z" fill="#252D1C"/>
<path d="M252.935 151.149C250.816 149.888 248.39 149.236 245.924 149.265C243.426 149.222 240.962 149.838 238.778 151.051C236.714 152.208 235.016 153.919 233.875 155.992C232.679 158.179 232.072 160.639 232.114 163.131C232.089 165.574 232.695 167.981 233.875 170.12C235.026 172.213 236.73 173.949 238.802 175.138C240.965 176.381 243.422 177.019 245.916 176.985C248.355 177.008 250.755 176.37 252.861 175.138C254.932 173.934 256.646 172.202 257.83 170.12C259.047 167.994 259.676 165.581 259.652 163.131C259.67 160.708 259.05 158.324 257.854 156.217C256.687 154.125 254.991 152.377 252.935 151.149V151.149ZM253.135 167.537C252.445 168.86 251.41 169.973 250.14 170.757C248.878 171.552 247.415 171.968 245.924 171.954C244.425 171.965 242.955 171.55 241.683 170.757C240.394 169.97 239.342 168.849 238.639 167.512C237.913 166.163 237.539 164.652 237.552 163.119C237.543 161.586 237.921 160.074 238.651 158.726C239.352 157.389 240.393 156.261 241.671 155.457C242.929 154.651 244.393 154.225 245.887 154.231C247.398 154.213 248.881 154.64 250.153 155.457C251.42 156.265 252.453 157.393 253.147 158.726C253.862 160.07 254.231 161.572 254.222 163.095C254.236 164.643 253.862 166.17 253.135 167.537V167.537Z" fill="#252D1C"/>
<path d="M254.786 137.958H247.321L243.481 146.548H246.998L254.786 137.958Z" fill="#252D1C"/>
<path d="M272.403 138.583H262.594V143.127H267.239V171.607H262.594V176.2H276.395V171.607H272.403V138.583Z" fill="#252D1C"/>
<path d="M302.299 159.224C302.299 155.781 301.482 153.261 299.847 151.664C298.213 150.068 295.646 149.268 292.146 149.265C289.799 149.203 287.474 149.731 285.384 150.802C283.445 151.865 281.871 153.487 280.865 155.457L285.809 156.683C286.361 155.714 287.168 154.916 288.142 154.374C289.229 153.833 290.434 153.572 291.647 153.614C293.627 153.614 295.051 154.055 295.917 154.938C296.783 155.82 297.215 157.285 297.212 159.331V162.151C295.111 160.686 292.611 159.901 290.05 159.903C288.469 159.915 286.91 160.274 285.482 160.953C284.031 161.601 282.785 162.632 281.878 163.936C280.986 165.23 280.519 166.77 280.542 168.342C280.534 169.825 280.96 171.278 281.768 172.523C282.574 173.777 283.681 174.811 284.987 175.53C286.349 176.285 287.884 176.671 289.441 176.65C292.505 176.65 295.284 175.424 297.776 172.972V176.192H306.711V171.607H302.319L302.299 159.224ZM297.232 169.511C295.021 171.622 292.65 172.679 290.119 172.682C289.509 172.707 288.9 172.612 288.326 172.401C287.753 172.191 287.226 171.87 286.777 171.456C286.352 171.06 286.017 170.579 285.793 170.043C285.569 169.507 285.461 168.93 285.478 168.35C285.466 167.734 285.594 167.123 285.851 166.563C286.109 166.004 286.489 165.509 286.965 165.117C287.941 164.264 289.199 163.805 290.495 163.83C292.742 163.83 294.988 164.703 297.232 166.45V169.511Z" fill="#252D1C"/>
<path d="M322.053 151.002C320.498 151.926 319.196 153.56 318.147 155.906V149.964H308.787V154.582H314.053V171.607H308.787V176.2H324.885V171.607H319.165V165.665C319.165 162.87 319.385 160.731 319.826 159.249C320.026 158.539 320.37 157.879 320.836 157.308C321.302 156.737 321.88 156.268 322.535 155.931C323.897 155.198 325.977 154.831 328.774 154.831H329.89V149.617H328.717C325.83 149.617 323.608 150.078 322.053 151.002Z" fill="#252D1C"/>
<path d="M144.308 68.333C141.652 62.5422 129.681 66.4082 124.108 67.9243C118.535 69.4405 118.126 74.4262 118.126 74.4262C116.709 84.1034 122.784 102.571 123.601 104.643C124.418 106.715 125.959 115.203 112.308 115.203C98.658 115.203 95.9655 110.438 95.9655 110.438C98.8255 118.726 113.628 118.971 118.735 117.565C127.283 115.203 128.59 108.914 127.438 103.826C126.286 98.7378 124.435 91.676 123.65 83.6294C122.866 75.5827 124.435 73.0654 133.963 70.6256C143.491 68.1859 146.007 75.0065 146.007 75.0065C146.007 75.0065 146.964 74.1238 144.308 68.333Z" fill="#252D1C"/>
<path d="M87.4632 82.5669C87.4656 81.6027 87.1811 80.6595 86.646 79.8575C89.6776 79.8575 91.8594 82.2849 92.3946 84.271C92.7133 85.448 94.5846 87.6793 96.4803 87.4464C96.4803 87.4464 96.7663 87.238 96.2679 87.0377C95.655 86.7884 94.2577 85.9547 93.747 83.8133C92.9299 80.4786 91.5162 78.3576 87.4713 77.9898C86.4382 77.8856 85.3966 77.8979 84.3662 78.0266C80.4112 78.5252 78.9035 80.7156 78.9035 80.7156C78.5458 81.1971 78.1583 81.6557 77.7432 82.0888C75.2918 84.6102 73.6575 84.0626 74.2213 84.4509C74.2213 84.4509 75.6963 85.0026 77.8617 83.7561C78.1285 84.8093 78.7393 85.7431 79.5971 86.4095C80.455 87.0758 81.5109 87.4364 82.5971 87.4341C83.887 87.432 85.1234 86.9185 86.0355 86.0062C86.9476 85.0938 87.461 83.8571 87.4632 82.5669V82.5669Z" fill="#252D1C"/>
<path d="M131.961 80.5563C130.264 80.5442 128.576 80.8008 126.96 81.3164C125.992 81.6311 125.35 81.9662 125.207 82.1338C124.754 82.7182 125.117 84.9944 125.281 85.869L125.33 86.1223C125.33 86.1877 125.354 86.2327 125.354 86.2327C125.616 87.2929 126.225 88.2347 127.085 88.9075C127.945 89.5802 129.006 89.945 130.098 89.9434C131.39 89.938 132.628 89.4223 133.543 88.5085C134.457 87.5947 134.974 86.3567 134.98 85.0639C134.98 84.1844 134.742 83.3213 134.29 82.5669C135.915 82.982 137.418 83.7761 138.678 84.8841C140.9 87.0337 137.959 89.4039 137.669 89.7145C137.651 89.7287 137.636 89.7467 137.626 89.7672C137.616 89.7877 137.611 89.8102 137.611 89.833C137.611 89.8558 137.616 89.8783 137.626 89.8988C137.636 89.9194 137.651 89.9374 137.669 89.9515C142.706 88.0962 139.952 83.6131 139.952 83.6131C137.562 81.3042 134.592 80.5767 131.961 80.5563Z" fill="#252D1C"/>
<path d="M83.0179 134.3C83.0179 134.3 82.6379 134.709 83.4265 134.709C84.9341 134.709 86.9034 134.745 90.8134 136.609C93.6675 138.012 96.8602 138.579 100.023 138.243C103.581 137.835 104.231 137.291 106.715 137.177C109.624 137.038 111.262 137.843 113.898 137.774C115.761 137.729 117.648 137.116 119.397 137.308C121.031 137.483 123.462 138.836 124.508 138.836C125.121 138.836 125.146 138.391 124.807 138.391C123.581 138.362 121.248 133.442 117.187 134.77C116.37 135.035 115.679 135.644 114.069 135.722C112.999 135.771 111.892 135.313 110.151 134.766C108.882 134.336 107.536 134.181 106.202 134.309C104.869 134.437 103.577 134.846 102.413 135.51C100.002 136.932 97.9798 137.046 90.0331 134.79C90.0576 134.815 84.9505 133 83.0179 134.3Z" fill="#252D1C"/>
<path d="M84.3375 70.5031C84.5091 70.5439 84.6848 70.5766 84.8605 70.6216C86.4253 70.969 87.7982 71.3286 89.0075 71.6923H89.032C90.5274 72.1541 96.3863 74.2955 96.3863 74.2955C98.5845 74.8268 100.958 71.1488 100.713 70.8259C100.64 70.6788 99.3853 68.6968 96.0431 67.8958C94.0983 67.4299 91.4671 66.7474 88.6643 66.1876C87.4386 65.9464 86.1802 65.7258 84.9381 65.5541C79.7615 64.8594 74.781 65.0883 73.0895 68.3126C72.6564 69.13 72.3091 69.8696 72.0313 70.5112C71.8434 70.9199 71.6881 71.3286 71.5615 71.6841C70.54 74.4712 71.1815 74.978 71.1815 74.978C71.7445 73.8403 72.5778 72.8581 73.6084 72.1173C75.5655 70.6788 78.9076 69.4119 84.3375 70.5031Z" fill="#252D1C"/>
<path d="M117.934 170.013C117.501 169.923 117.068 169.825 116.643 169.719C114.242 169.232 111.797 168.987 109.346 168.987C106.287 168.985 103.239 169.369 100.276 170.132C97.3142 170.894 94.2679 171.279 91.2097 171.276C87.2627 171.281 83.3416 170.639 79.6022 169.376C88.1521 173.541 97.5399 175.699 107.05 175.685C113.184 175.691 119.287 174.797 125.162 173.033C127.012 172.216 128.815 171.326 130.572 170.365C128.814 170.631 127.038 170.768 125.26 170.773C122.799 170.766 120.345 170.512 117.934 170.013V170.013Z" fill="#252D1C"/>
<circle cx="378.5" cy="12.5" r="11.5" stroke="#252D1C" strokeWidth="2"/>
<path d="M384 18H381.222L379.229 14.4894C379.065 14.2189 378.869 14.0265 378.641 13.9121C378.412 13.7872 378.123 13.7248 377.775 13.7248H376.516V18H374V7H379.294C380.645 7 381.663 7.28605 382.35 7.85816C383.047 8.41986 383.395 9.23641 383.395 10.3078C383.395 11.14 383.15 11.8369 382.66 12.3986C382.181 12.9603 381.5 13.3296 380.618 13.5064C381.217 13.652 381.723 14.0629 382.137 14.739L384 18ZM378.918 11.8837C379.648 11.8837 380.176 11.7641 380.503 11.5248C380.83 11.2752 380.993 10.8903 380.993 10.3702C380.993 9.83972 380.83 9.45485 380.503 9.2156C380.176 8.97636 379.648 8.85674 378.918 8.85674H376.484V11.8837H378.918Z" fill="#252D1C"/>
</g>
<defs>
<clipPath id="clip0_4480_693">
<rect width="392.005" height="209" fill="white"/>
</clipPath>
</defs>
</svg>
