<svg width="142" height="20" viewBox="0 0 142 20" fill="none" xmlns="http://www.w3.org/2000/svg">
<g clip-path="url(#clip0_8568_77547)">
<path d="M0 10.3739V10.3194C0 4.99555 4.09947 0.640625 9.98133 0.640625C12.8554 0.640625 14.7938 1.39185 16.3868 2.53502C16.8212 2.85075 17.2111 3.43867 17.2111 4.16812C17.2111 5.28951 16.2865 6.17138 15.128 6.17138C14.5487 6.17138 14.1699 5.95363 13.8691 5.76855C12.6883 4.90845 11.4629 4.42941 9.95905 4.42941C6.72849 4.42941 4.41139 7.05325 4.41139 10.2541V10.3086C4.41139 13.5203 6.68393 16.1877 9.95905 16.1877C11.7414 16.1877 12.9111 15.6542 14.1142 14.7179C14.4373 14.4457 14.8829 14.2607 15.373 14.2607C16.4425 14.2607 17.3448 15.1208 17.3448 16.155C17.3448 16.7974 17.0217 17.3091 16.6318 17.6248C14.9052 19.0946 12.8888 19.9765 9.82537 19.9765C4.18859 19.9983 0 15.7413 0 10.3739Z" fill="#36368C"/>
<path d="M19.7182 15.5592V15.5048C19.7182 12.3801 22.1578 10.9321 25.6223 10.9321C27.1039 10.9321 28.1622 11.1716 29.2093 11.52V11.2805C29.2093 9.59296 28.1399 8.65665 26.0679 8.65665C24.9205 8.65665 23.9847 8.81996 23.1938 9.05948C22.9487 9.13569 22.7816 9.16835 22.5923 9.16835C21.6342 9.16835 20.8656 8.44979 20.8656 7.51348C20.8656 6.79492 21.3335 6.17434 21.9907 5.93482C23.3052 5.45578 24.7311 5.18359 26.6695 5.18359C28.942 5.18359 30.5795 5.77151 31.6156 6.78403C32.7073 7.85099 33.1974 9.42965 33.1974 11.3567V17.8782C33.1974 18.9778 32.2951 19.827 31.17 19.827C29.9669 19.827 29.1759 18.9996 29.1759 18.1395V18.1177C28.1622 19.2173 26.7697 19.9359 24.7423 19.9359C21.9796 19.9359 19.707 18.3899 19.707 15.5483L19.7182 15.5592ZM29.265 14.6229V13.9043C28.5521 13.5886 27.6275 13.3709 26.6138 13.3709C24.8314 13.3709 23.7397 14.0676 23.7397 15.3523V15.4068C23.7397 16.5064 24.6643 17.1488 26.0122 17.1488C27.9505 17.1488 29.265 16.1036 29.265 14.6338V14.6229Z" fill="#36368C"/>
<path d="M36.7834 7.21985C36.7834 6.09846 37.708 5.18392 38.8666 5.18392C40.0251 5.18392 40.9497 6.08757 40.9497 7.21985V7.38316C41.9078 6.18556 43.1666 5.08594 45.272 5.08594C47.1881 5.08594 48.6362 5.91337 49.4049 7.36139C50.686 5.8916 52.2233 5.08594 54.2173 5.08594C57.3031 5.08594 59.1634 6.90412 59.1634 10.3554V17.8132C59.1634 18.9346 58.2388 19.8491 57.0803 19.8491C55.9217 19.8491 54.9971 18.9455 54.9971 17.8132V11.6945C54.9971 9.76748 54.1171 8.77674 52.5575 8.77674C50.9979 8.77674 50.0399 9.76748 50.0399 11.6945V17.8132C50.0399 18.9346 49.1153 19.8491 47.9567 19.8491C46.7982 19.8491 45.8736 18.9455 45.8736 17.8132V11.6945C45.8736 9.76748 44.9935 8.77674 43.4339 8.77674C41.8743 8.77674 40.9163 9.76748 40.9163 11.6945V17.8132C40.9163 18.9346 39.9917 19.8491 38.8332 19.8491C37.6746 19.8491 36.75 18.9455 36.75 17.8132V7.21985H36.7834Z" fill="#36368C"/>
<path d="M62.7734 2.03593C62.7734 0.914535 63.6981 0 64.8566 0C66.0151 0 66.9398 0.903647 66.9398 2.03593V7.41426C67.9535 6.07512 69.346 5.08438 71.5071 5.08438C74.927 5.08438 78.1799 7.70822 78.1799 12.4878V12.5422C78.1799 17.3326 74.9827 19.9456 71.5071 19.9456C69.2903 19.9456 67.9201 18.9548 66.9398 17.8117V17.8334C66.9398 18.933 66.0151 19.8367 64.8566 19.8367C63.6981 19.8367 62.7734 18.933 62.7734 17.8008V2.03593ZM74.0136 12.5422V12.4878C74.0136 10.1034 72.376 8.53566 70.4265 8.53566C68.4771 8.53566 66.8729 10.1143 66.8729 12.4878V12.5422C66.8729 14.9265 68.4882 16.4943 70.4265 16.4943C72.3649 16.4943 74.0136 14.9483 74.0136 12.5422Z" fill="#36368C"/>
<path d="M81.1758 1.92564C81.1758 0.749813 82.1895 0.03125 83.504 0.03125C84.8185 0.03125 85.8322 0.749813 85.8322 1.92564V1.98008C85.8322 3.15591 84.8185 3.90713 83.504 3.90713C82.1895 3.90713 81.1758 3.15591 81.1758 1.98008V1.92564ZM81.4209 7.21688C81.4209 6.09549 82.3455 5.18095 83.504 5.18095C84.6626 5.18095 85.5872 6.0846 85.5872 7.21688V17.7994C85.5872 18.9207 84.6626 19.8353 83.504 19.8353C82.3455 19.8353 81.4209 18.9316 81.4209 17.7994V7.21688Z" fill="#36368C"/>
<path d="M88.6186 15.5592V15.5048C88.6186 12.3801 91.0582 10.9321 94.5227 10.9321C96.0043 10.9321 97.0626 11.1716 98.1097 11.52V11.2805C98.1097 9.59296 97.0403 8.65665 94.9683 8.65665C93.8209 8.65665 92.8851 8.81996 92.0942 9.05948C91.8491 9.13569 91.682 9.16835 91.4926 9.16835C90.5346 9.16835 89.766 8.44979 89.766 7.51348C89.766 6.79492 90.2338 6.17434 90.8911 5.93482C92.2056 5.45578 93.6315 5.18359 95.5698 5.18359C97.8424 5.18359 99.4799 5.77151 100.516 6.78403C101.608 7.85099 102.098 9.42965 102.098 11.3567V17.8782C102.098 18.9778 101.195 19.827 100.07 19.827C98.8672 19.827 98.0763 18.9996 98.0763 18.1395V18.1177C97.0626 19.2173 95.6701 19.9359 93.6426 19.9359C90.88 19.9359 88.6074 18.3899 88.6074 15.5483L88.6186 15.5592ZM98.1654 14.6229V13.9043C97.4525 13.5886 96.5279 13.3709 95.5141 13.3709C93.7318 13.3709 92.6401 14.0676 92.6401 15.3523V15.4068C92.6401 16.5064 93.5647 17.1488 94.9126 17.1488C96.8509 17.1488 98.1654 16.1036 98.1654 14.6338V14.6229Z" fill="#36368C"/>
<path d="M106.252 0.957031H121.569V5.49704H111.555V8.67614H120.611V12.9766H111.555V19.6614H106.252V0.957031Z" fill="#00A7A8"/>
<path d="M129.145 10.1568L122.851 0.957031H128.955L132.342 6.22649L135.762 0.957031H141.722L135.428 10.1024L141.989 19.6723H135.884L132.219 14.0327L128.532 19.6723H122.572L129.134 10.1568H129.145Z" fill="#00A7A8"/>
</g>
<defs>
<clipPath id="clip0_8568_77547">
<rect width="142" height="20" fill="white"/>
</clipPath>
</defs>
</svg>
