<svg width="25" height="26" viewBox="0 0 25 26" fill="none" xmlns="http://www.w3.org/2000/svg"><circle cx="12.5" cy="13" r="12" stroke="black"></circle><path d="M13.4093 5.1875V7.4763H12.1758V5.1875H13.4093ZM13.2591 17.8574V19.9444H12.0256V17.8574H13.2591ZM14.1289 15.3125C14.1289 15.0177 14.0736 14.7668 13.9629 14.5599C13.8574 14.353 13.6835 14.1694 13.441 14.0091C13.2038 13.8487 12.8822 13.6936 12.4763 13.5436C11.791 13.2849 11.1874 13.0108 10.6655 12.7211C10.1489 12.4263 9.74559 12.0617 9.45566 11.6272C9.16572 11.1875 9.02075 10.6315 9.02075 9.95907C9.02075 9.31769 9.17626 8.76165 9.48728 8.29096C9.79831 7.82027 10.2279 7.4582 10.7762 7.20475C11.3297 6.94613 11.9728 6.81682 12.7056 6.81682C13.2644 6.81682 13.7705 6.89957 14.2238 7.06509C14.6772 7.22544 15.0673 7.46337 15.3941 7.77889C15.7209 8.08923 15.9713 8.46941 16.1453 8.91941C16.3193 9.36941 16.4062 9.88407 16.4062 10.4634H14.1368C14.1368 10.153 14.1026 9.87889 14.034 9.64096C13.9655 9.40303 13.8653 9.20389 13.7336 9.04355C13.607 8.8832 13.4542 8.76424 13.2749 8.68665C13.0957 8.60389 12.898 8.56251 12.6819 8.56251C12.3603 8.56251 12.0967 8.62458 11.8911 8.74872C11.6855 8.87286 11.5353 9.04096 11.4404 9.25303C11.3508 9.45993 11.306 9.69786 11.306 9.96683C11.306 10.2306 11.3534 10.4608 11.4483 10.6573C11.5485 10.8539 11.7198 11.0349 11.9623 11.2005C12.2048 11.3608 12.5369 11.5263 12.9586 11.697C13.6439 11.9556 14.2449 12.2349 14.7615 12.5349C15.2781 12.8349 15.6814 13.2022 15.9713 13.6367C16.2613 14.0711 16.4062 14.6246 16.4062 15.297C16.4062 15.9643 16.2481 16.5332 15.9318 17.0039C15.6155 17.4694 15.1727 17.8263 14.6034 18.0746C14.034 18.3177 13.3751 18.4393 12.6265 18.4393C12.1415 18.4393 11.6592 18.3772 11.1795 18.2531C10.6998 18.1237 10.2648 17.9169 9.87475 17.6324C9.48465 17.3479 9.17363 16.9703 8.94168 16.4996C8.70973 16.0237 8.59375 15.4393 8.59375 14.7462H10.8711C10.8711 15.1237 10.9212 15.4393 11.0213 15.6927C11.1215 15.941 11.2533 16.1401 11.4167 16.2901C11.5854 16.4349 11.7752 16.5384 11.986 16.6005C12.1969 16.6625 12.4104 16.6936 12.6265 16.6936C12.9639 16.6936 13.2407 16.6341 13.4568 16.5151C13.6782 16.3962 13.8443 16.2332 13.955 16.0263C14.0709 15.8143 14.1289 15.5763 14.1289 15.3125Z" fill="black"></path></svg>