<svg width="160" height="52" viewBox="0 0 160 52" fill="none" xmlns="http://www.w3.org/2000/svg">
<g clip-path="url(#clip0_2211_87)">
<path d="M18.8851 32.6014C22.281 38.4477 27.8356 38.4477 31.2315 32.6014L33.1307 29.3308L16.134 0H0L18.8851 32.6014Z" fill="#FFDD00"/>
<path d="M54.6799 20.0717C53.4396 22.2026 50.519 22.2004 49.2819 20.0674L37.6382 0H21.5095L40.4139 32.6121C43.8087 38.4584 49.3527 38.4584 52.7475 32.6121L65.3998 10.7709L59.1734 0H43.0523L54.6799 20.0717Z" fill="#FFDD00"/>
<path d="M76.3299 17.2448H79.6378L79.6657 17.1421C81.7065 9.59802 82.5434 6.37765 82.8835 4.38149C83.214 6.37124 84.009 9.63972 85.9597 17.1411L85.9865 17.2459H89.3663L94.0712 0H90.994L90.9672 0.10478C88.9221 7.93438 88.1421 11.1045 87.7891 13.1242C87.3781 10.9537 86.4919 7.37199 84.5777 0.10478L84.5509 0.00106918H81.3352L81.3084 0.105849C79.3181 7.85846 78.4844 11.1772 78.1282 13.3327C77.7376 11.2317 76.861 7.75048 74.8728 0.10478L74.846 0H71.6508L76.3031 17.1421L76.331 17.2448H76.3299Z" fill="black"/>
<path d="M99.2976 17.4842C101.798 17.4842 104.163 16.1263 105.11 14.1034L102.828 12.9476L102.779 12.9423L102.736 13.031C102.46 13.603 101.447 14.9352 99.3212 14.9352C97.391 14.9352 95.9232 13.711 95.6978 11.9405H105.526L105.529 11.8047C105.589 9.38833 104.931 7.405 103.625 6.07067C102.492 4.91382 100.931 4.30225 99.1088 4.30225C97.2869 4.30225 95.671 4.9769 94.494 6.20325C93.3288 7.41676 92.6871 9.0911 92.6871 10.9173C92.6871 14.7845 95.4049 17.4842 99.2976 17.4842V17.4842ZM99.1088 6.80306C100.931 6.80306 102.314 7.96311 102.454 9.58292H95.6978C95.9049 7.96311 97.3148 6.80306 99.1088 6.80306V6.80306Z" fill="black"/>
<path d="M111.744 17.4841C114.962 17.4841 116.961 15.9936 116.961 13.5933C116.961 10.7482 114.365 10.0768 112.279 9.53686C110.838 9.16372 109.594 8.84189 109.594 7.92988C109.594 7.19643 110.372 6.68322 111.484 6.68322C112.702 6.68322 113.544 7.32366 113.684 8.35435L113.77 8.87611L113.828 8.86649L116.387 8.39605C116.387 6.00536 114.263 4.32568 111.509 4.32568C108.755 4.32568 106.693 5.88668 106.693 8.12127C106.693 10.8209 109.213 11.4935 111.236 12.0334C112.701 12.4247 113.967 12.7615 113.967 13.7131C113.967 14.5406 113.152 15.0549 111.84 15.0549C110.263 15.0549 109.204 14.3246 109.074 13.1475L109.051 12.955L106.34 13.4682C106.34 16.0856 109.282 17.4851 111.746 17.4851L111.744 17.4841Z" fill="black"/>
<path d="M119.251 14.8981C119.251 16.3255 120.158 17.4834 121.659 17.4834C123.522 17.4834 124.069 17.245 124.069 17.245V14.8404C124.069 14.8404 123.51 14.9324 122.831 14.9324C122.392 14.9324 122.083 14.6683 122.083 14.2684V6.99371H124.048L124.022 4.56453H122.083V0.956055L119.251 1.66278V4.56453H117.774L117.765 6.99371H119.251V14.8981Z" fill="black"/>
<path d="M141.448 6.16821V4.56444H138.955V17.2449H141.951L141.926 9.48908C141.965 8.70965 142.228 8.11198 142.707 7.71317C143.336 7.19034 144.317 7.01179 145.618 7.18286L145.775 7.20317L145.802 4.55696L145.679 4.53985C143.884 4.29608 142.26 4.84243 141.448 6.16714V6.16821Z" fill="black"/>
<path d="M153.925 4.30127C152.124 4.30127 150.437 5.01655 149.601 6.37548V4.56429H147.008V17.2447H150.027V10.4384C150.027 8.25082 151.175 6.94535 153.099 6.94535C154.414 6.94535 155.982 7.51843 155.982 10.247V17.2447H159.001V9.84068C159.001 5.75642 156.38 4.30127 153.926 4.30127H153.925Z" fill="black"/>
<path d="M83.8781 29.6203C83.8781 32.551 82.4854 34.1644 79.9564 34.1644C77.4275 34.1644 76.0584 32.551 76.0584 29.6203V19.5166H73.0155V29.5487C73.0155 34.2146 75.6099 36.9998 79.9564 36.9998C84.303 36.9998 86.8974 34.2146 86.8974 29.5487V19.5166H83.8781V29.6203V29.6203Z" fill="black"/>
<path d="M95.6141 23.8169C93.8126 23.8169 92.1259 24.5322 91.2901 25.8911V24.0799H88.6968V36.7604H91.7161V29.954C91.7161 27.7664 92.8641 26.461 94.7879 26.461C96.1034 26.461 97.671 27.0341 97.671 29.7626V36.7604H100.69V29.3563C100.69 25.272 98.069 23.8169 95.6152 23.8169H95.6141Z" fill="black"/>
<path d="M105.555 24.0801H102.559V36.7605H105.555V24.0801Z" fill="black"/>
<path d="M104.069 19.4067C103.09 19.4067 102.323 20.1584 102.323 21.1174C102.323 22.0765 103.107 22.8057 104.069 22.8057C105.031 22.8057 105.791 22.0487 105.791 21.1174C105.791 20.1862 105.019 19.4067 104.069 19.4067Z" fill="black"/>
<path d="M113.657 23.8169C111.793 23.8169 110.089 24.4841 108.86 25.6944C107.63 26.9047 106.952 28.579 106.952 30.4084C106.952 34.2275 109.772 36.9999 113.657 36.9999C117.542 36.9999 120.385 34.2275 120.385 30.4084C120.385 28.5769 119.707 26.9025 118.476 25.6944C117.242 24.4841 115.531 23.8169 113.658 23.8169H113.657ZM113.657 34.2596C111.502 34.2596 109.877 32.6034 109.877 30.4084C109.877 28.2134 111.502 26.5572 113.657 26.5572C115.811 26.5572 117.484 28.2134 117.484 30.4084C117.484 32.6034 115.838 34.2596 113.657 34.2596Z" fill="black"/>
<path d="M128.701 23.8169C126.9 23.8169 125.213 24.5322 124.377 25.8911V24.0799H121.783V36.7604H124.803V29.954C124.803 27.7664 125.951 26.461 127.875 26.461C129.19 26.461 130.758 27.0341 130.758 29.7626V36.7604H133.777V29.3563C133.777 25.272 131.156 23.8169 128.702 23.8169H128.701Z" fill="black"/>
<path d="M131.242 4.30127C129.443 4.30127 127.804 4.97592 126.627 6.20227C125.462 7.41579 124.82 9.09012 124.82 10.9163C124.82 14.7835 127.538 17.4832 131.43 17.4832C133.93 17.4832 136.296 16.1253 137.243 14.1024L134.96 12.9466L134.912 12.9413L134.869 13.03C134.592 13.6021 133.58 14.9343 131.454 14.9343C129.524 14.9343 128.056 13.71 127.831 11.9395H137.659L137.662 11.8037C137.722 9.38735 137.063 7.40403 135.757 6.06969C134.624 4.91284 133.062 4.30127 131.241 4.30127H131.242ZM127.831 9.58194C128.038 7.96214 129.448 6.80208 131.242 6.80208C133.036 6.80208 134.446 7.96214 134.587 9.58194H127.831Z" fill="black"/>
</g>
<defs>
<clipPath id="clip0_2211_87">
<rect width="159" height="37" fill="white"/>
</clipPath>
</defs>
</svg>
